<svg width="118" height="118" viewBox="0 0 118 118" fill="none" xmlns="http://www.w3.org/2000/svg">
<circle cx="59" cy="59" r="59" fill="url(#paint0_linear_597_329)"/>
<path fill-rule="evenodd" clip-rule="evenodd" d="M52.5095 34C38.9733 34 28 44.9732 28 58.5094C28 72.0456 38.9732 83.0189 52.5094 83.0189H85.1887C87.8959 83.0189 90.0906 80.8242 90.0906 78.117C90.0906 75.4097 87.8959 73.2151 85.1887 73.2151H52.5094C44.3877 73.2151 37.8038 66.6311 37.8038 58.5094C37.8038 50.3877 44.3877 43.8038 52.5095 43.8038H85.1887C87.8959 43.8038 90.0906 41.6091 90.0906 38.9019C90.0906 36.1946 87.8959 34 85.1887 34H52.5095ZM85.1885 63.4115C87.8958 63.4115 90.0904 61.2168 90.0904 58.5096C90.0904 55.8023 87.8958 53.6077 85.1885 53.6077C82.4813 53.6077 80.2867 55.8023 80.2867 58.5096C80.2867 61.2168 82.4813 63.4115 85.1885 63.4115Z" fill="url(#paint1_linear_597_329)"/>
<defs>
<linearGradient id="paint0_linear_597_329" x1="59" y1="0" x2="59" y2="118" gradientUnits="userSpaceOnUse">
<stop stop-color="#1E293B"/>
<stop offset="1" stop-color="#090E19"/>
</linearGradient>
<linearGradient id="paint1_linear_597_329" x1="28" y1="34" x2="77.0189" y2="83.0189" gradientUnits="userSpaceOnUse">
<stop stop-color="#01FFB3"/>
<stop offset="1" stop-color="#B062E8"/>
</linearGradient>
</defs>
</svg>
