<svg width="68" height="68" viewBox="0 0 68 68" fill="none" xmlns="http://www.w3.org/2000/svg">
<path fill-rule="evenodd" clip-rule="evenodd" d="M7.67626 0C3.43678 0 0 3.43678 0 7.67626V59.491C0 63.7305 3.43678 67.1672 7.67626 67.1672H59.491C63.7305 67.1672 67.1672 63.7305 67.1672 59.491V7.67626C67.1672 3.43678 63.7305 0 59.491 0H7.67626ZM6.23696 34.5835C6.23696 22.66 15.9029 12.994 27.8264 12.994H56.6124C58.9971 12.994 60.9303 14.9272 60.9303 17.3119C60.9303 19.6966 58.9971 21.6298 56.6124 21.6298H27.8264C20.6723 21.6298 14.8727 27.4294 14.8727 34.5835C14.8727 41.7376 20.6723 47.5372 27.8264 47.5372H56.6124C58.9971 47.5372 60.9303 49.4704 60.9303 51.8551C60.9303 54.2398 58.9971 56.173 56.6124 56.173H27.8264C15.9029 56.173 6.23696 46.507 6.23696 34.5835ZM60.9303 34.5835C60.9303 37.2332 58.7823 39.3812 56.1326 39.3812C53.4829 39.3812 51.335 37.2332 51.335 34.5835C51.335 31.9338 53.4829 29.7858 56.1326 29.7858C58.7823 29.7858 60.9303 31.9338 60.9303 34.5835Z" fill="url(#paint0_linear_589_342)"/>
<defs>
<linearGradient id="paint0_linear_589_342" x1="-2.62598" y1="-6.25544e-07" x2="64.5413" y2="67.1672" gradientUnits="userSpaceOnUse">
<stop stop-color="#01FFB3"/>
<stop offset="1" stop-color="#B062E8"/>
</linearGradient>
</defs>
</svg>
