<svg width="295" height="62" viewBox="0 0 295 62" fill="none" xmlns="http://www.w3.org/2000/svg">
<path fill-rule="evenodd" clip-rule="evenodd" d="M24.5095 6.49121C10.9733 6.49121 0 17.4645 0 31.0006C0 44.5368 10.9732 55.5101 24.5094 55.5101H57.1887C59.8959 55.5101 62.0906 53.3154 62.0906 50.6082C62.0906 47.901 59.8959 45.7063 57.1887 45.7063H24.5094C16.3877 45.7063 9.80378 39.1224 9.80378 31.0006C9.80378 22.8789 16.3877 16.295 24.5095 16.295H57.1887C59.8959 16.295 62.0906 14.1003 62.0906 11.3931C62.0906 8.68586 59.8959 6.49121 57.1887 6.49121H24.5095ZM57.1885 35.9027C59.8958 35.9027 62.0904 33.708 62.0904 31.0008C62.0904 28.2936 59.8958 26.0989 57.1885 26.0989C54.4813 26.0989 52.2867 28.2936 52.2867 31.0008C52.2867 33.708 54.4813 35.9027 57.1885 35.9027Z" fill="url(#paint0_linear_588_328)"/>
<path d="M96.4617 37.5277L101.356 40.1851C100.163 41.8515 98.6455 43.1845 96.8037 44.1844C94.9795 45.1842 92.9974 45.6841 90.8574 45.6841C88.4368 45.6841 86.2267 45.0614 84.2271 43.816C82.245 42.5706 80.6576 40.9043 79.4648 38.8169C78.2896 36.712 77.702 34.3879 77.702 31.8445C77.702 29.915 78.044 28.1171 78.7281 26.4507C79.4122 24.7668 80.3506 23.2934 81.5434 22.0305C82.7537 20.75 84.1569 19.7502 85.7531 19.031C87.3493 18.3119 89.0508 17.9523 90.8574 17.9523C92.9974 17.9523 94.9795 18.4522 96.8037 19.452C98.6455 20.4518 100.163 21.7937 101.356 23.4776L96.4617 26.135C95.725 25.258 94.8655 24.5914 93.8832 24.1354C92.9009 23.6618 91.8923 23.425 90.8574 23.425C89.4191 23.425 88.1123 23.8196 86.9371 24.609C85.7794 25.3808 84.8585 26.4069 84.1745 27.6874C83.5079 28.9503 83.1746 30.336 83.1746 31.8445C83.1746 33.3355 83.5167 34.7212 84.2008 36.0016C84.8849 37.2646 85.8057 38.2819 86.9634 39.0537C88.1386 39.8255 89.4367 40.2114 90.8574 40.2114C91.945 40.2114 92.9799 39.9658 93.9621 39.4747C94.9444 38.9836 95.7776 38.3345 96.4617 37.5277ZM105.283 18.689H110.756V45H105.283V18.689ZM108.072 14.8739C107.23 14.8739 106.529 14.602 105.967 14.0583C105.406 13.5145 105.125 12.8304 105.125 12.006C105.125 11.1991 105.406 10.5238 105.967 9.98006C106.529 9.41876 107.222 9.13811 108.046 9.13811C108.853 9.13811 109.537 9.41876 110.098 9.98006C110.659 10.5238 110.94 11.1991 110.94 12.006C110.94 12.8304 110.659 13.5145 110.098 14.0583C109.554 14.602 108.879 14.8739 108.072 14.8739ZM120.059 58.1555H114.587V18.689H120.059V22.5567C120.936 21.2061 122.059 20.1098 123.427 19.2678C124.795 18.4259 126.409 18.0049 128.268 18.0049C130.18 18.0049 131.969 18.3645 133.636 19.0837C135.32 19.8028 136.793 20.8027 138.056 22.0831C139.319 23.346 140.31 24.8107 141.029 26.4771C141.748 28.1434 142.108 29.9326 142.108 31.8445C142.108 33.7564 141.748 35.5544 141.029 37.2383C140.31 38.9222 139.319 40.4043 138.056 41.6848C136.793 42.9477 135.32 43.9388 133.636 44.658C131.969 45.3771 130.18 45.7367 128.268 45.7367C126.409 45.7367 124.795 45.3157 123.427 44.4738C122.059 43.6143 120.936 42.518 120.059 41.1849V58.1555ZM128.216 23.2934C126.69 23.2934 125.348 23.6793 124.19 24.4511C123.033 25.2229 122.129 26.2578 121.48 27.5558C120.831 28.8363 120.507 30.2658 120.507 31.8445C120.507 33.4232 120.831 34.8615 121.48 36.1595C122.129 37.4575 123.033 38.4924 124.19 39.2642C125.348 40.036 126.69 40.4219 128.216 40.4219C129.724 40.4219 131.11 40.0448 132.373 39.2905C133.636 38.5187 134.644 37.4838 135.399 36.1858C136.153 34.8878 136.53 33.4407 136.53 31.8445C136.53 30.2834 136.153 28.8538 135.399 27.5558C134.662 26.2578 133.662 25.2229 132.399 24.4511C131.136 23.6793 129.742 23.2934 128.216 23.2934ZM169.716 28.503V45H164.244V29.8449C164.244 28.6696 163.954 27.5997 163.375 26.6349C162.814 25.6702 162.051 24.9072 161.086 24.3459C160.139 23.767 159.069 23.4776 157.876 23.4776C156.719 23.4776 155.658 23.767 154.693 24.3459C153.728 24.9072 152.956 25.6702 152.377 26.6349C151.799 27.5997 151.509 28.6696 151.509 29.8449V45H146.037V5.5335H151.509V21.478C152.421 20.3904 153.544 19.531 154.877 18.8995C156.21 18.268 157.648 17.9523 159.192 17.9523C161.139 17.9523 162.911 18.4259 164.507 19.3731C166.103 20.3203 167.366 21.592 168.296 23.1882C169.243 24.7844 169.716 26.556 169.716 28.503ZM186.031 45.6841C183.611 45.6841 181.401 45.0614 179.401 43.816C177.419 42.5706 175.831 40.9043 174.639 38.8169C173.463 36.712 172.876 34.3879 172.876 31.8445C172.876 29.915 173.218 28.1171 173.902 26.4507C174.586 24.7668 175.524 23.2934 176.717 22.0305C177.928 20.75 179.331 19.7502 180.927 19.031C182.523 18.3119 184.225 17.9523 186.031 17.9523C188.048 17.9523 189.899 18.3733 191.583 19.2152C193.267 20.0396 194.705 21.1885 195.898 22.662C197.091 24.1178 197.968 25.8017 198.529 27.7137C199.09 29.6081 199.257 31.6252 199.029 33.7652H178.743C178.971 34.9755 179.41 36.0718 180.059 37.0541C180.725 38.0188 181.567 38.7818 182.585 39.3431C183.619 39.9044 184.768 40.1939 186.031 40.2114C187.364 40.2114 188.575 39.8781 189.662 39.2116C190.767 38.545 191.671 37.6242 192.372 36.4489L197.924 37.7382C196.871 40.0711 195.284 41.983 193.162 43.474C191.039 44.9474 188.662 45.6841 186.031 45.6841ZM178.559 29.5818H193.504C193.328 28.3188 192.881 27.1787 192.162 26.1613C191.46 25.1264 190.574 24.3108 189.504 23.7144C188.452 23.1005 187.294 22.7935 186.031 22.7935C184.786 22.7935 183.628 23.0917 182.558 23.6881C181.506 24.2845 180.629 25.1001 179.927 26.135C179.243 27.1524 178.787 28.3013 178.559 29.5818ZM203.386 45V18.689H208.859V21.478C209.771 20.3904 210.894 19.531 212.227 18.8995C213.56 18.268 214.998 17.9523 216.542 17.9523C217.524 17.9523 218.498 18.0839 219.462 18.347L217.278 23.8723C216.594 23.6092 215.91 23.4776 215.226 23.4776C214.069 23.4776 213.007 23.767 212.043 24.3459C211.078 24.9072 210.306 25.6702 209.727 26.6349C209.148 27.5997 208.859 28.6696 208.859 29.8449V45H203.386ZM232.846 45.6841C230.426 45.6841 228.216 45.0614 226.216 43.816C224.234 42.5706 222.646 40.9043 221.454 38.8169C220.279 36.712 219.691 34.3879 219.691 31.8445C219.691 29.915 220.033 28.1171 220.717 26.4507C221.401 24.7668 222.34 23.2934 223.532 22.0305C224.743 20.75 226.146 19.7502 227.742 19.031C229.338 18.3119 231.04 17.9523 232.846 17.9523C234.864 17.9523 236.714 18.3733 238.398 19.2152C240.082 20.0396 241.52 21.1885 242.713 22.662C243.906 24.1178 244.783 25.8017 245.344 27.7137C245.905 29.6081 246.072 31.6252 245.844 33.7652H225.558C225.786 34.9755 226.225 36.0718 226.874 37.0541C227.54 38.0188 228.382 38.7818 229.4 39.3431C230.435 39.9044 231.583 40.1939 232.846 40.2114C234.179 40.2114 235.39 39.8781 236.477 39.2116C237.582 38.545 238.486 37.6242 239.187 36.4489L244.739 37.7382C243.687 40.0711 242.099 41.983 239.977 43.474C237.854 44.9474 235.477 45.6841 232.846 45.6841ZM225.374 29.5818H240.319C240.143 28.3188 239.696 27.1787 238.977 26.1613C238.275 25.1264 237.389 24.3108 236.319 23.7144C235.267 23.1005 234.109 22.7935 232.846 22.7935C231.601 22.7935 230.443 23.0917 229.373 23.6881C228.321 24.2845 227.444 25.1001 226.742 26.135C226.058 27.1524 225.602 28.3013 225.374 29.5818ZM250.201 45V18.689H255.674V21.478C256.586 20.3904 257.7 19.531 259.016 18.8995C260.349 18.268 261.787 17.9523 263.331 17.9523C265.207 17.9523 266.935 18.4084 268.514 19.3205C270.092 20.215 271.347 21.4078 272.276 22.8988C273.206 21.4078 274.443 20.215 275.986 19.3205C277.547 18.4084 279.266 17.9523 281.143 17.9523C283.09 17.9523 284.862 18.4259 286.458 19.3731C288.054 20.3203 289.326 21.592 290.273 23.1882C291.22 24.7844 291.694 26.556 291.694 28.503V45H286.221V29.8975C286.221 28.7398 285.94 27.6786 285.379 26.7139C284.818 25.7491 284.064 24.9686 283.116 24.3722C282.169 23.7758 281.117 23.4776 279.959 23.4776C278.801 23.4776 277.749 23.7583 276.802 24.3196C275.855 24.8809 275.1 25.6439 274.539 26.6086C273.978 27.5733 273.697 28.6696 273.697 29.8975V45H268.224V29.8975C268.224 28.6696 267.944 27.5733 267.382 26.6086C266.821 25.6439 266.058 24.8809 265.093 24.3196C264.146 23.7583 263.094 23.4776 261.936 23.4776C260.796 23.4776 259.743 23.7758 258.779 24.3722C257.832 24.9686 257.077 25.7491 256.516 26.7139C255.955 27.6786 255.674 28.7398 255.674 29.8975V45H250.201Z" fill="url(#paint1_linear_588_328)"/>
<defs>
<linearGradient id="paint0_linear_588_328" x1="0" y1="6.49121" x2="49.0189" y2="55.5101" gradientUnits="userSpaceOnUse">
<stop stop-color="#01FFB3"/>
<stop offset="1" stop-color="#B062E8"/>
</linearGradient>
<linearGradient id="paint1_linear_588_328" x1="52.8799" y1="-5.60713" x2="94.2711" y2="132.277" gradientUnits="userSpaceOnUse">
<stop stop-color="#51FBE7"/>
<stop offset="1" stop-color="#C742FA"/>
</linearGradient>
</defs>
</svg>
