<svg width="120" height="24" viewBox="0 0 354 119" fill="none" xmlns="http://www.w3.org/2000/svg">
<path d="M85.7946 39.5879H53.1154C42.2864 39.5879 33.5078 48.3665 33.5078 59.1954V59.1954C33.5078 70.0244 42.2864 78.803 53.1154 78.803H85.7946" stroke="url(#paint0_linear_214_2243)" stroke-width="9.80378" stroke-linecap="round" stroke-linejoin="round"/>
<circle cx="85.7945" cy="59.1956" r="4.90189" fill="#0FF0D9"/>
<path d="M125.035 65.723L129.929 68.3804C128.736 70.0468 127.219 71.3799 125.377 72.3797C123.553 73.3795 121.57 73.8794 119.43 73.8794C117.01 73.8794 114.8 73.2567 112.8 72.0113C110.818 70.7659 109.231 69.0996 108.038 67.0122C106.863 64.9073 106.275 62.5832 106.275 60.0398C106.275 58.1103 106.617 56.3124 107.301 54.6461C107.985 52.9622 108.924 51.4887 110.116 50.2258C111.327 48.9453 112.73 47.9455 114.326 47.2264C115.922 46.5072 117.624 46.1476 119.43 46.1476C121.57 46.1476 123.553 46.6475 125.377 47.6473C127.219 48.6472 128.736 49.989 129.929 51.6729L125.035 54.3303C124.298 53.4533 123.438 52.7867 122.456 52.3307C121.474 51.8571 120.465 51.6203 119.43 51.6203C117.992 51.6203 116.685 52.015 115.51 52.8043C114.352 53.5761 113.432 54.6022 112.747 55.8827C112.081 57.1456 111.748 58.5313 111.748 60.0398C111.748 61.5308 112.09 62.9165 112.774 64.197C113.458 65.4599 114.379 66.4772 115.536 67.249C116.712 68.0208 118.01 68.4067 119.43 68.4067C120.518 68.4067 121.553 68.1611 122.535 67.67C123.517 67.1789 124.351 66.5299 125.035 65.723ZM133.856 46.8843H139.329V73.1953H133.856V46.8843ZM136.619 42.543C135.795 42.543 135.102 42.2711 134.54 41.7274C133.979 41.1836 133.698 40.4995 133.698 39.6751C133.698 38.8682 133.979 38.1929 134.54 37.6492C135.102 37.0879 135.795 36.8072 136.619 36.8072C137.426 36.8072 138.11 37.0879 138.671 37.6492C139.232 38.1929 139.513 38.8682 139.513 39.6751C139.513 40.4995 139.232 41.1836 138.671 41.7274C138.11 42.2711 137.426 42.543 136.619 42.543ZM150.637 86.3508H145.164V46.8843H150.637V50.752C151.514 49.4014 152.636 48.3051 154.004 47.4632C155.373 46.6212 156.986 46.2002 158.846 46.2002C160.757 46.2002 162.547 46.5598 164.213 47.279C165.897 47.9981 167.37 48.998 168.633 50.2784C169.896 51.5414 170.887 53.006 171.606 54.6724C172.326 56.3387 172.685 58.1279 172.685 60.0398C172.685 61.9517 172.326 63.7497 171.606 65.4336C170.887 67.1175 169.896 68.5997 168.633 69.8801C167.37 71.1431 165.897 72.1341 164.213 72.8533C162.547 73.5724 160.757 73.932 158.846 73.932C156.986 73.932 155.373 73.511 154.004 72.6691C152.636 71.8096 151.514 70.7133 150.637 69.3802V86.3508ZM158.793 51.4887C157.267 51.4887 155.925 51.8746 154.767 52.6464C153.61 53.4182 152.706 54.4531 152.057 55.7511C151.408 57.0316 151.084 58.4612 151.084 60.0398C151.084 61.6185 151.408 63.0568 152.057 64.3548C152.706 65.6528 153.61 66.6877 154.767 67.4595C155.925 68.2313 157.267 68.6172 158.793 68.6172C160.301 68.6172 161.687 68.2401 162.95 67.4858C164.213 66.714 165.222 65.6791 165.976 64.3811C166.73 63.0831 167.107 61.636 167.107 60.0398C167.107 58.4787 166.73 57.0491 165.976 55.7511C165.239 54.4531 164.239 53.4182 162.976 52.6464C161.713 51.8746 160.319 51.4887 158.793 51.4887ZM201.619 59.4347V73.1953H196.147V59.5399C196.147 58.0489 195.831 56.6895 195.2 55.4617C194.586 54.2339 193.761 53.2603 192.726 52.5412C191.691 51.822 190.542 51.4624 189.28 51.4624C187.911 51.4624 186.745 51.822 185.78 52.5412C184.815 53.2603 184.07 54.2339 183.544 55.4617C183.035 56.6895 182.781 58.0489 182.781 59.5399V73.1953H177.282V33.7288H182.754V49.9627C183.491 48.5419 184.456 47.5596 185.649 47.0159C186.859 46.4546 188.245 46.1739 189.806 46.1739C192.174 46.1739 194.235 46.7791 195.989 47.9894C197.743 49.1997 199.111 50.8134 200.093 52.8306C201.076 54.8302 201.584 57.0316 201.619 59.4347ZM217.585 73.8794C215.164 73.8794 212.954 73.2567 210.954 72.0113C208.972 70.7659 207.385 69.0996 206.192 67.0122C205.017 64.9073 204.429 62.5832 204.429 60.0398C204.429 58.1103 204.771 56.3124 205.455 54.6461C206.14 52.9622 207.078 51.4887 208.271 50.2258C209.481 48.9453 210.884 47.9455 212.481 47.2264C214.077 46.5072 215.778 46.1476 217.585 46.1476C219.602 46.1476 221.453 46.5686 223.136 47.4105C224.82 48.2349 226.259 49.3839 227.451 50.8573C228.644 52.3132 229.521 53.9971 230.083 55.909C230.644 57.8034 230.811 59.8206 230.582 61.9605H210.297C210.525 63.1708 210.963 64.2671 211.612 65.2494C212.279 66.2141 213.121 66.9771 214.138 67.5384C215.173 68.0997 216.322 68.3892 217.585 68.4067C218.918 68.4067 220.128 68.0734 221.216 67.4069C222.321 66.7403 223.224 65.8195 223.926 64.6442L229.477 65.9335C228.425 68.2664 226.838 70.1783 224.715 71.6693C222.593 73.1427 220.216 73.8794 217.585 73.8794ZM210.113 57.7771H225.057C224.882 56.5141 224.434 55.374 223.715 54.3566C223.014 53.3217 222.128 52.5061 221.058 51.9097C220.005 51.2958 218.848 50.9888 217.585 50.9888C216.339 50.9888 215.182 51.287 214.112 51.8834C213.059 52.4798 212.182 53.2954 211.481 54.3303C210.797 55.3477 210.341 56.4966 210.113 57.7771ZM250.541 52.3833C250.085 52.1027 249.585 51.8834 249.041 51.7255C248.515 51.5501 247.936 51.4624 247.305 51.4624C245.937 51.4624 244.744 51.822 243.726 52.5412C242.709 53.2603 241.911 54.2339 241.332 55.4617C240.771 56.6895 240.49 58.0489 240.49 59.5399V73.1953H234.991V46.8843H240.464V50.4363C241.376 49.1207 242.481 48.0858 243.779 47.3316C245.095 46.5598 246.559 46.1739 248.173 46.1739C248.769 46.1739 249.331 46.2002 249.857 46.2529C250.401 46.3055 250.918 46.4107 251.409 46.5686L250.541 52.3833ZM265.171 73.8794C262.75 73.8794 260.54 73.2567 258.54 72.0113C256.558 70.7659 254.971 69.0996 253.778 67.0122C252.603 64.9073 252.015 62.5832 252.015 60.0398C252.015 58.1103 252.357 56.3124 253.041 54.6461C253.725 52.9622 254.664 51.4887 255.857 50.2258C257.067 48.9453 258.47 47.9455 260.066 47.2264C261.663 46.5072 263.364 46.1476 265.171 46.1476C267.188 46.1476 269.038 46.5686 270.722 47.4105C272.406 48.2349 273.845 49.3839 275.037 50.8573C276.23 52.3132 277.107 53.9971 277.668 55.909C278.23 57.8034 278.396 59.8206 278.168 61.9605H257.883C258.111 63.1708 258.549 64.2671 259.198 65.2494C259.865 66.2141 260.707 66.9771 261.724 67.5384C262.759 68.0997 263.908 68.3892 265.171 68.4067C266.504 68.4067 267.714 68.0734 268.802 67.4069C269.907 66.7403 270.81 65.8195 271.512 64.6442L277.063 65.9335C276.011 68.2664 274.423 70.1783 272.301 71.6693C270.179 73.1427 267.802 73.8794 265.171 73.8794ZM257.698 57.7771H272.643C272.468 56.5141 272.02 55.374 271.301 54.3566C270.6 53.3217 269.714 52.5061 268.644 51.9097C267.591 51.2958 266.434 50.9888 265.171 50.9888C263.925 50.9888 262.768 51.287 261.698 51.8834C260.645 52.4798 259.768 53.2954 259.067 54.3303C258.383 55.3477 257.926 56.4966 257.698 57.7771ZM281.709 73.1953V46.8843H287.182V50.0679C288.024 49.033 288.909 48.1911 289.839 47.5421C290.786 46.8755 291.909 46.5423 293.207 46.5423C295.136 46.5423 296.846 46.9808 298.337 47.8578C299.846 48.7173 301.109 49.9188 302.126 51.4624C303.144 49.9013 304.406 48.691 305.915 47.8315C307.441 46.972 309.142 46.5423 311.019 46.5423C313.282 46.5423 315.273 47.1123 316.992 48.2525C318.711 49.3926 320.062 50.9099 321.044 52.8043C322.026 54.6811 322.517 56.7509 322.517 59.0137V73.1953H317.045V59.0137C317.045 57.7157 316.79 56.5405 316.282 55.488C315.79 54.4356 315.098 53.5936 314.203 52.9622C313.308 52.3307 312.247 52.015 311.019 52.015C309.827 52.015 308.757 52.3307 307.809 52.9622C306.88 53.5936 306.152 54.4356 305.626 55.488C305.117 56.5405 304.863 57.7157 304.863 59.0137V73.1953H299.39V59.0137C299.39 57.7157 299.127 56.5405 298.601 55.488C298.074 54.4356 297.346 53.5936 296.417 52.9622C295.487 52.3307 294.417 52.015 293.207 52.015C292.049 52.015 291.014 52.3482 290.102 53.0148C289.208 53.6813 288.497 54.5584 287.971 55.6459C287.445 56.7334 287.182 57.9262 287.182 59.2242V73.1953H281.709Z" fill="white"/>
<defs>
<linearGradient id="paint0_linear_214_2243" x1="59.6512" y1="39.5879" x2="59.6512" y2="78.803" gradientUnits="userSpaceOnUse">
<stop stop-color="#0FF0D9"/>
<stop offset="1" stop-color="#B062E8"/>
</linearGradient>
</defs>
</svg>
