<svg width="298" height="62" viewBox="0 0 298 62" fill="none" xmlns="http://www.w3.org/2000/svg">
<path fill-rule="evenodd" clip-rule="evenodd" d="M24.5095 6.49121C10.9733 6.49121 0 17.4645 0 31.0006C0 44.5368 10.9732 55.5101 24.5094 55.5101H57.1887C59.8959 55.5101 62.0906 53.3154 62.0906 50.6082C62.0906 47.901 59.8959 45.7063 57.1887 45.7063H24.5094C16.3877 45.7063 9.80378 39.1224 9.80378 31.0006C9.80378 22.8789 16.3877 16.295 24.5095 16.295H57.1887C59.8959 16.295 62.0906 14.1003 62.0906 11.3931C62.0906 8.68586 59.8959 6.49121 57.1887 6.49121H24.5095ZM57.1885 35.9027C59.8958 35.9027 62.0904 33.708 62.0904 31.0008C62.0904 28.2936 59.8958 26.0989 57.1885 26.0989C54.4813 26.0989 52.2867 28.2936 52.2867 31.0008C52.2867 33.708 54.4813 35.9027 57.1885 35.9027Z" fill="url(#paint0_linear_589_340)"/>
<path d="M96.4617 37.5277L101.356 40.1851C100.163 41.8515 98.6455 43.1845 96.8037 44.1844C94.9795 45.1842 92.9974 45.6841 90.8574 45.6841C88.4368 45.6841 86.2267 45.0614 84.2271 43.816C82.245 42.5706 80.6576 40.9043 79.4648 38.8169C78.2896 36.712 77.702 34.3879 77.702 31.8445C77.702 29.915 78.044 28.1171 78.7281 26.4507C79.4122 24.7668 80.3506 23.2934 81.5434 22.0305C82.7537 20.75 84.1569 19.7502 85.7531 19.031C87.3493 18.3119 89.0508 17.9523 90.8574 17.9523C92.9974 17.9523 94.9795 18.4522 96.8037 19.452C98.6455 20.4518 100.163 21.7937 101.356 23.4776L96.4617 26.135C95.725 25.258 94.8655 24.5914 93.8832 24.1354C92.9009 23.6618 91.8923 23.425 90.8574 23.425C89.4191 23.425 88.1123 23.8196 86.9371 24.609C85.7794 25.3808 84.8585 26.4069 84.1745 27.6874C83.5079 28.9503 83.1746 30.336 83.1746 31.8445C83.1746 33.3355 83.5167 34.7212 84.2008 36.0016C84.8849 37.2646 85.8057 38.2819 86.9634 39.0537C88.1386 39.8255 89.4367 40.2114 90.8574 40.2114C91.945 40.2114 92.9799 39.9658 93.9621 39.4747C94.9444 38.9836 95.7776 38.3345 96.4617 37.5277ZM105.283 18.689H110.756V45H105.283V18.689ZM108.046 14.3477C107.222 14.3477 106.529 14.0758 105.967 13.532C105.406 12.9883 105.125 12.3042 105.125 11.4798C105.125 10.6729 105.406 9.9976 105.967 9.45384C106.529 8.89254 107.222 8.61189 108.046 8.61189C108.853 8.61189 109.537 8.89254 110.098 9.45384C110.659 9.9976 110.94 10.6729 110.94 11.4798C110.94 12.3042 110.659 12.9883 110.098 13.532C109.537 14.0758 108.853 14.3477 108.046 14.3477ZM122.064 58.1555H116.591V18.689H122.064V22.5567C122.941 21.2061 124.063 20.1098 125.431 19.2678C126.8 18.4259 128.413 18.0049 130.273 18.0049C132.184 18.0049 133.974 18.3645 135.64 19.0837C137.324 19.8028 138.797 20.8027 140.06 22.0831C141.323 23.346 142.314 24.8107 143.033 26.4771C143.753 28.1434 144.112 29.9326 144.112 31.8445C144.112 33.7564 143.753 35.5544 143.033 37.2383C142.314 38.9222 141.323 40.4043 140.06 41.6848C138.797 42.9477 137.324 43.9388 135.64 44.658C133.974 45.3771 132.184 45.7367 130.273 45.7367C128.413 45.7367 126.8 45.3157 125.431 44.4738C124.063 43.6143 122.941 42.518 122.064 41.1849V58.1555ZM130.22 23.2934C128.694 23.2934 127.352 23.6793 126.194 24.4511C125.037 25.2229 124.133 26.2578 123.484 27.5558C122.835 28.8363 122.511 30.2658 122.511 31.8445C122.511 33.4232 122.835 34.8615 123.484 36.1595C124.133 37.4575 125.037 38.4924 126.194 39.2642C127.352 40.036 128.694 40.4219 130.22 40.4219C131.728 40.4219 133.114 40.0448 134.377 39.2905C135.64 38.5187 136.649 37.4838 137.403 36.1858C138.157 34.8878 138.534 33.4407 138.534 31.8445C138.534 30.2834 138.157 28.8538 137.403 27.5558C136.666 26.2578 135.666 25.2229 134.403 24.4511C133.14 23.6793 131.746 23.2934 130.22 23.2934ZM173.046 31.2393V45H167.574V31.3446C167.574 29.8536 167.258 28.4942 166.627 27.2664C166.013 26.0385 165.188 25.065 164.153 24.3459C163.118 23.6267 161.969 23.2671 160.707 23.2671C159.338 23.2671 158.172 23.6267 157.207 24.3459C156.242 25.065 155.497 26.0385 154.971 27.2664C154.462 28.4942 154.208 29.8536 154.208 31.3446V45H148.709V5.5335H154.181V21.7674C154.918 20.3466 155.883 19.3643 157.076 18.8206C158.286 18.2593 159.672 17.9786 161.233 17.9786C163.601 17.9786 165.662 18.5838 167.416 19.7941C169.17 21.0044 170.538 22.6181 171.52 24.6353C172.503 26.6349 173.011 28.8363 173.046 31.2393ZM189.012 45.6841C186.591 45.6841 184.381 45.0614 182.381 43.816C180.399 42.5706 178.812 40.9043 177.619 38.8169C176.444 36.712 175.856 34.3879 175.856 31.8445C175.856 29.915 176.198 28.1171 176.882 26.4507C177.567 24.7668 178.505 23.2934 179.698 22.0305C180.908 20.75 182.311 19.7502 183.908 19.031C185.504 18.3119 187.205 17.9523 189.012 17.9523C191.029 17.9523 192.88 18.3733 194.563 19.2152C196.247 20.0396 197.686 21.1885 198.878 22.662C200.071 24.1178 200.948 25.8017 201.51 27.7137C202.071 29.6081 202.238 31.6252 202.009 33.7652H181.724C181.952 34.9755 182.39 36.0718 183.039 37.0541C183.706 38.0188 184.548 38.7818 185.565 39.3431C186.6 39.9044 187.749 40.1939 189.012 40.2114C190.345 40.2114 191.555 39.8781 192.643 39.2116C193.748 38.545 194.651 37.6242 195.353 36.4489L200.904 37.7382C199.852 40.0711 198.265 41.983 196.142 43.474C194.02 44.9474 191.643 45.6841 189.012 45.6841ZM181.54 29.5818H196.484C196.309 28.3188 195.861 27.1787 195.142 26.1613C194.441 25.1264 193.555 24.3108 192.485 23.7144C191.432 23.1005 190.275 22.7935 189.012 22.7935C187.766 22.7935 186.609 23.0917 185.539 23.6881C184.486 24.2845 183.609 25.1001 182.908 26.135C182.224 27.1524 181.768 28.3013 181.54 29.5818ZM221.968 24.188C221.512 23.9073 221.012 23.6881 220.468 23.5302C219.942 23.3548 219.363 23.2671 218.732 23.2671C217.364 23.2671 216.171 23.6267 215.153 24.3459C214.136 25.065 213.338 26.0385 212.759 27.2664C212.198 28.4942 211.917 29.8536 211.917 31.3446V45H206.418V18.689H211.891V22.241C212.803 20.9254 213.908 19.8905 215.206 19.1363C216.522 18.3645 217.986 17.9786 219.6 17.9786C220.196 17.9786 220.758 18.0049 221.284 18.0575C221.828 18.1102 222.345 18.2154 222.836 18.3733L221.968 24.188ZM236.598 45.6841C234.177 45.6841 231.967 45.0614 229.967 43.816C227.985 42.5706 226.398 40.9043 225.205 38.8169C224.03 36.712 223.442 34.3879 223.442 31.8445C223.442 29.915 223.784 28.1171 224.468 26.4507C225.152 24.7668 226.091 23.2934 227.284 22.0305C228.494 20.75 229.897 19.7502 231.493 19.031C233.09 18.3119 234.791 17.9523 236.598 17.9523C238.615 17.9523 240.465 18.3733 242.149 19.2152C243.833 20.0396 245.272 21.1885 246.464 22.662C247.657 24.1178 248.534 25.8017 249.095 27.7137C249.657 29.6081 249.823 31.6252 249.595 33.7652H229.31C229.538 34.9755 229.976 36.0718 230.625 37.0541C231.292 38.0188 232.134 38.7818 233.151 39.3431C234.186 39.9044 235.335 40.1939 236.598 40.2114C237.931 40.2114 239.141 39.8781 240.229 39.2116C241.334 38.545 242.237 37.6242 242.939 36.4489L248.49 37.7382C247.438 40.0711 245.85 41.983 243.728 43.474C241.606 44.9474 239.229 45.6841 236.598 45.6841ZM229.125 29.5818H244.07C243.895 28.3188 243.447 27.1787 242.728 26.1613C242.027 25.1264 241.141 24.3108 240.071 23.7144C239.018 23.1005 237.861 22.7935 236.598 22.7935C235.352 22.7935 234.195 23.0917 233.125 23.6881C232.072 24.2845 231.195 25.1001 230.494 26.135C229.81 27.1524 229.353 28.3013 229.125 29.5818ZM253.136 45V18.689H258.609V21.8726C259.451 20.8377 260.336 19.9958 261.266 19.3468C262.213 18.6802 263.336 18.347 264.634 18.347C266.563 18.347 268.273 18.7855 269.764 19.6625C271.273 20.522 272.536 21.7235 273.553 23.2671C274.571 21.706 275.833 20.4957 277.342 19.6362C278.868 18.7767 280.569 18.347 282.446 18.347C284.709 18.347 286.7 18.917 288.419 20.0572C290.138 21.1973 291.489 22.7146 292.471 24.609C293.453 26.4858 293.944 28.5556 293.944 30.8184V45H288.472V30.8184C288.472 29.5204 288.217 28.3451 287.709 27.2927C287.217 26.2403 286.525 25.3983 285.63 24.7668C284.735 24.1354 283.674 23.8196 282.446 23.8196C281.254 23.8196 280.184 24.1354 279.236 24.7668C278.307 25.3983 277.579 26.2403 277.053 27.2927C276.544 28.3451 276.29 29.5204 276.29 30.8184V45H270.817V30.8184C270.817 29.5204 270.554 28.3451 270.028 27.2927C269.501 26.2403 268.773 25.3983 267.844 24.7668C266.914 24.1354 265.844 23.8196 264.634 23.8196C263.476 23.8196 262.441 24.1529 261.529 24.8195C260.635 25.486 259.924 26.363 259.398 27.4506C258.872 28.5381 258.609 29.7309 258.609 31.0289V45H253.136Z" fill="white"/>
<defs>
<linearGradient id="paint0_linear_589_340" x1="0" y1="6.49121" x2="49.0189" y2="55.5101" gradientUnits="userSpaceOnUse">
<stop stop-color="#01FFB3"/>
<stop offset="1" stop-color="#B062E8"/>
</linearGradient>
</defs>
</svg>
